<svg width="800" height="560" viewBox="0 0 800 560" fill="none" xmlns="http://www.w3.org/2000/svg">
  <rect width="800" height="560" rx="36" fill="#F5E8D8"/>
  <rect x="54" y="74" width="692" height="412" rx="28" fill="#FFF9F1"/>
  <ellipse cx="400" cy="360" rx="240" ry="94" fill="#EBC9AE"/>
  <circle cx="258" cy="300" r="70" fill="#FFF4D4"/>
  <circle cx="542" cy="284" r="62" fill="#FFF4D4"/>
  <rect x="320" y="232" width="172" height="104" rx="22" fill="#D98969"/>
  <rect x="334" y="248" width="144" height="72" rx="18" fill="#FFF7EB"/>
  <circle cx="258" cy="300" r="30" fill="#F2C45E"/>
  <circle cx="246" cy="292" r="4" fill="#6D5847"/>
  <circle cx="270" cy="292" r="4" fill="#6D5847"/>
  <path d="M246 314C253 322 265 322 272 314" stroke="#6D5847" stroke-width="4" stroke-linecap="round"/>
  <rect x="516" y="222" width="52" height="118" rx="18" fill="#F8FBFF"/>
  <rect x="524" y="196" width="36" height="34" rx="14" fill="#D9E9F8"/>
  <path d="M180 190C215 156 278 146 336 164" stroke="#E1B894" stroke-width="16" stroke-linecap="round"/>
  <path d="M470 168C542 142 610 162 648 214" stroke="#E1B894" stroke-width="16" stroke-linecap="round"/>
</svg>
