<svg width="800" height="560" viewBox="0 0 800 560" fill="none" xmlns="http://www.w3.org/2000/svg">
  <rect width="800" height="560" rx="36" fill="#E7F0E3"/>
  <rect y="350" width="800" height="210" rx="24" fill="#BCD4A7"/>
  <circle cx="126" cy="116" r="54" fill="#F8E3A1"/>
  <path d="M116 382C182 296 242 264 310 248" stroke="#7FA36D" stroke-width="22" stroke-linecap="round"/>
  <path d="M278 242L278 418" stroke="#8E7359" stroke-width="12" stroke-linecap="round"/>
  <path d="M278 242L210 196" stroke="#8E7359" stroke-width="8" stroke-linecap="round"/>
  <path d="M278 242L346 196" stroke="#8E7359" stroke-width="8" stroke-linecap="round"/>
  <path d="M278 242L210 288" stroke="#8E7359" stroke-width="8" stroke-linecap="round"/>
  <path d="M278 242L346 288" stroke="#8E7359" stroke-width="8" stroke-linecap="round"/>
  <path d="M278 242L278 160" stroke="#8E7359" stroke-width="8" stroke-linecap="round"/>
  <path d="M278 242L278 324" stroke="#8E7359" stroke-width="8" stroke-linecap="round"/>
  <circle cx="210" cy="196" r="28" fill="#D78865"/>
  <circle cx="346" cy="196" r="28" fill="#D9B66F"/>
  <circle cx="210" cy="288" r="28" fill="#9BB88D"/>
  <circle cx="346" cy="288" r="28" fill="#E5A8A0"/>
  <circle cx="278" cy="160" r="28" fill="#F2C45E"/>
  <circle cx="278" cy="324" r="28" fill="#C98E7C"/>
  <path d="M490 374C536 300 608 266 688 262" stroke="#7FA36D" stroke-width="22" stroke-linecap="round"/>
  <path d="M652 278C682 248 720 238 750 248" stroke="#7FA36D" stroke-width="14" stroke-linecap="round"/>
  <path d="M496 140C566 112 628 118 690 158" stroke="#FFFFFF" stroke-opacity="0.7" stroke-width="16" stroke-linecap="round"/>
</svg>
